<svg width="250" height="42" viewBox="0 0 250 42" fill="none" xmlns="http://www.w3.org/2000/svg">
<path d="M60.552 32.806C60.024 32.806 59.52 32.742 59.04 32.614C58.544 32.486 58.128 32.294 57.792 32.038L58.536 30.262C59.016 30.662 59.64 30.862 60.408 30.862C61.016 30.862 61.48 30.67 61.8 30.286C62.136 29.918 62.304 29.366 62.304 28.63V15.286H64.608V28.582C64.608 29.878 64.256 30.902 63.552 31.654C62.864 32.422 61.864 32.806 60.552 32.806ZM63.456 12.838C63.008 12.838 62.632 12.694 62.328 12.406C62.04 12.118 61.896 11.766 61.896 11.35C61.896 10.918 62.04 10.558 62.328 10.27C62.632 9.98198 63.008 9.83798 63.456 9.83798C63.904 9.83798 64.272 9.98198 64.56 10.27C64.864 10.542 65.016 10.886 65.016 11.302C65.016 11.734 64.872 12.102 64.584 12.406C64.296 12.694 63.92 12.838 63.456 12.838ZM77.3323 28.15C76.0523 28.15 74.9163 27.87 73.9243 27.31C72.9323 26.75 72.1483 25.982 71.5723 25.006C70.9963 24.014 70.7083 22.894 70.7083 21.646C70.7083 20.382 70.9963 19.262 71.5723 18.286C72.1483 17.31 72.9323 16.55 73.9243 16.006C74.9163 15.446 76.0523 15.166 77.3323 15.166C78.5963 15.166 79.7243 15.446 80.7163 16.006C81.7243 16.55 82.5083 17.31 83.0683 18.286C83.6443 19.246 83.9323 20.366 83.9323 21.646C83.9323 22.91 83.6443 24.03 83.0683 25.006C82.5083 25.982 81.7243 26.75 80.7163 27.31C79.7243 27.87 78.5963 28.15 77.3323 28.15ZM77.3323 26.134C78.1483 26.134 78.8763 25.95 79.5163 25.582C80.1723 25.214 80.6843 24.694 81.0523 24.022C81.4203 23.334 81.6043 22.542 81.6043 21.646C81.6043 20.734 81.4203 19.95 81.0523 19.294C80.6843 18.622 80.1723 18.102 79.5163 17.734C78.8763 17.366 78.1483 17.182 77.3323 17.182C76.5163 17.182 75.7883 17.366 75.1483 17.734C74.5083 18.102 73.9963 18.622 73.6123 19.294C73.2283 19.95 73.0363 20.734 73.0363 21.646C73.0363 22.542 73.2283 23.334 73.6123 24.022C73.9963 24.694 74.5083 25.214 75.1483 25.582C75.7883 25.95 76.5163 26.134 77.3323 26.134ZM96.7907 15.166C97.8307 15.166 98.7427 15.366 99.5267 15.766C100.327 16.166 100.951 16.774 101.399 17.59C101.847 18.406 102.071 19.438 102.071 20.686V28.006H99.7667V20.95C99.7667 19.718 99.4627 18.79 98.8547 18.166C98.2627 17.542 97.4227 17.23 96.3347 17.23C95.5187 17.23 94.8067 17.39 94.1987 17.71C93.5907 18.03 93.1187 18.502 92.7827 19.126C92.4627 19.75 92.3027 20.526 92.3027 21.454V28.006H89.9987V10.198H92.3027V18.718L91.8467 17.806C92.2627 16.974 92.9027 16.326 93.7667 15.862C94.6307 15.398 95.6387 15.166 96.7907 15.166ZM116.007 15.166C117.047 15.166 117.959 15.366 118.743 15.766C119.543 16.166 120.167 16.774 120.615 17.59C121.063 18.406 121.287 19.438 121.287 20.686V28.006H118.983V20.95C118.983 19.718 118.679 18.79 118.071 18.166C117.479 17.542 116.639 17.23 115.551 17.23C114.735 17.23 114.023 17.39 113.415 17.71C112.807 18.03 112.335 18.502 111.999 19.126C111.679 19.75 111.519 20.526 111.519 21.454V28.006H109.215V15.286H111.423V18.718L111.063 17.806C111.479 16.974 112.119 16.326 112.983 15.862C113.847 15.398 114.855 15.166 116.007 15.166ZM128.767 28.006V14.158C128.767 12.91 129.127 11.918 129.847 11.182C130.583 10.43 131.623 10.054 132.967 10.054C133.463 10.054 133.935 10.118 134.383 10.246C134.847 10.358 135.239 10.542 135.559 10.798L134.863 12.55C134.623 12.358 134.351 12.214 134.047 12.118C133.743 12.006 133.423 11.95 133.087 11.95C132.415 11.95 131.903 12.142 131.551 12.526C131.199 12.894 131.023 13.446 131.023 14.182V15.886L131.071 16.942V28.006H128.767ZM126.607 17.182V15.286H134.719V17.182H126.607ZM139.772 28.006V15.286H141.98V18.742L141.764 17.878C142.116 16.998 142.708 16.326 143.54 15.862C144.372 15.398 145.396 15.166 146.612 15.166V17.398C146.516 17.382 146.42 17.374 146.324 17.374C146.244 17.374 146.164 17.374 146.084 17.374C144.852 17.374 143.876 17.742 143.156 18.478C142.436 19.214 142.076 20.278 142.076 21.67V28.006H139.772ZM157.662 28.15C156.382 28.15 155.246 27.87 154.254 27.31C153.262 26.75 152.478 25.982 151.902 25.006C151.326 24.014 151.038 22.894 151.038 21.646C151.038 20.382 151.326 19.262 151.902 18.286C152.478 17.31 153.262 16.55 154.254 16.006C155.246 15.446 156.382 15.166 157.662 15.166C158.926 15.166 160.054 15.446 161.046 16.006C162.054 16.55 162.838 17.31 163.398 18.286C163.974 19.246 164.262 20.366 164.262 21.646C164.262 22.91 163.974 24.03 163.398 25.006C162.838 25.982 162.054 26.75 161.046 27.31C160.054 27.87 158.926 28.15 157.662 28.15ZM157.662 26.134C158.478 26.134 159.206 25.95 159.846 25.582C160.502 25.214 161.014 24.694 161.382 24.022C161.75 23.334 161.934 22.542 161.934 21.646C161.934 20.734 161.75 19.95 161.382 19.294C161.014 18.622 160.502 18.102 159.846 17.734C159.206 17.366 158.478 17.182 157.662 17.182C156.846 17.182 156.118 17.366 155.478 17.734C154.838 18.102 154.326 18.622 153.942 19.294C153.558 19.95 153.366 20.734 153.366 21.646C153.366 22.542 153.558 23.334 153.942 24.022C154.326 24.694 154.838 25.214 155.478 25.582C156.118 25.95 156.846 26.134 157.662 26.134ZM177.12 15.166C178.16 15.166 179.072 15.366 179.856 15.766C180.656 16.166 181.28 16.774 181.728 17.59C182.176 18.406 182.4 19.438 182.4 20.686V28.006H180.096V20.95C180.096 19.718 179.792 18.79 179.184 18.166C178.592 17.542 177.752 17.23 176.664 17.23C175.848 17.23 175.136 17.39 174.528 17.71C173.92 18.03 173.448 18.502 173.112 19.126C172.792 19.75 172.632 20.526 172.632 21.454V28.006H170.328V15.286H172.536V18.718L172.176 17.806C172.592 16.974 173.232 16.326 174.096 15.862C174.96 15.398 175.968 15.166 177.12 15.166ZM193.912 28.15C192.632 28.15 191.64 27.806 190.936 27.118C190.232 26.43 189.88 25.446 189.88 24.166V12.502H192.184V24.07C192.184 24.758 192.352 25.286 192.688 25.654C193.04 26.022 193.536 26.206 194.176 26.206C194.896 26.206 195.496 26.006 195.976 25.606L196.696 27.262C196.344 27.566 195.92 27.79 195.424 27.934C194.944 28.078 194.44 28.15 193.912 28.15ZM187.72 17.182V15.286H195.832V17.182H187.72ZM207.196 28.15C205.964 28.15 204.86 27.878 203.884 27.334C202.924 26.79 202.164 26.03 201.604 25.054C201.044 24.078 200.764 22.942 200.764 21.646C200.764 20.35 201.044 19.222 201.604 18.262C202.164 17.286 202.924 16.526 203.884 15.982C204.86 15.438 205.964 15.166 207.196 15.166C208.268 15.166 209.236 15.406 210.1 15.886C210.964 16.366 211.652 17.086 212.164 18.046C212.692 19.006 212.956 20.206 212.956 21.646C212.956 23.086 212.7 24.286 212.188 25.246C211.692 26.206 211.012 26.934 210.148 27.43C209.284 27.91 208.3 28.15 207.196 28.15ZM207.388 26.134C208.188 26.134 208.908 25.95 209.548 25.582C210.204 25.214 210.716 24.694 211.084 24.022C211.468 23.334 211.66 22.542 211.66 21.646C211.66 20.734 211.468 19.95 211.084 19.294C210.716 18.622 210.204 18.102 209.548 17.734C208.908 17.366 208.188 17.182 207.388 17.182C206.572 17.182 205.844 17.366 205.204 17.734C204.564 18.102 204.052 18.622 203.668 19.294C203.284 19.95 203.092 20.734 203.092 21.646C203.092 22.542 203.284 23.334 203.668 24.022C204.052 24.694 204.564 25.214 205.204 25.582C205.844 25.95 206.572 26.134 207.388 26.134ZM211.732 28.006V24.574L211.876 21.622L211.636 18.67V10.198H213.94V28.006H211.732ZM226.843 28.15C225.483 28.15 224.283 27.87 223.243 27.31C222.219 26.75 221.419 25.982 220.843 25.006C220.283 24.03 220.003 22.91 220.003 21.646C220.003 20.382 220.275 19.262 220.819 18.286C221.379 17.31 222.139 16.55 223.099 16.006C224.075 15.446 225.171 15.166 226.387 15.166C227.619 15.166 228.707 15.438 229.651 15.982C230.595 16.526 231.331 17.294 231.859 18.286C232.403 19.262 232.675 20.406 232.675 21.718C232.675 21.814 232.667 21.926 232.651 22.054C232.651 22.182 232.643 22.302 232.627 22.414H221.803V20.758H231.427L230.491 21.334C230.507 20.518 230.339 19.79 229.987 19.15C229.635 18.51 229.147 18.014 228.523 17.662C227.915 17.294 227.203 17.11 226.387 17.11C225.587 17.11 224.875 17.294 224.251 17.662C223.627 18.014 223.139 18.518 222.787 19.174C222.435 19.814 222.259 20.55 222.259 21.382V21.766C222.259 22.614 222.451 23.374 222.835 24.046C223.235 24.702 223.787 25.214 224.491 25.582C225.195 25.95 226.003 26.134 226.915 26.134C227.667 26.134 228.347 26.006 228.955 25.75C229.579 25.494 230.123 25.11 230.587 24.598L231.859 26.086C231.283 26.758 230.563 27.27 229.699 27.622C228.851 27.974 227.899 28.15 226.843 28.15ZM241.856 28.006L236.288 15.286H238.688L243.632 26.806H242.48L247.52 15.286H249.776L244.208 28.006H241.856Z" fill="#044F5F"/>
<path d="M20.6045 10.0345C14.7588 10.0345 10.0437 14.7496 10.0437 20.5953C10.0437 26.4409 14.7588 31.156 20.6045 31.156C26.4501 31.156 31.1652 26.4409 31.1652 20.5953C31.1652 14.7496 26.4501 10.0345 20.6045 10.0345ZM20.6045 27.4611C16.8269 27.4611 13.7386 24.382 13.7386 20.5953C13.7386 16.8085 16.8177 13.7294 20.6045 13.7294C24.3912 13.7294 27.4703 16.8085 27.4703 20.5953C27.4703 24.382 24.382 27.4611 20.6045 27.4611ZM34.0604 9.60254C34.0604 10.972 32.9575 12.0658 31.5972 12.0658C30.2277 12.0658 29.1339 10.9628 29.1339 9.60254C29.1339 8.24224 30.2369 7.13929 31.5972 7.13929C32.9575 7.13929 34.0604 8.24224 34.0604 9.60254ZM41.055 12.1026C40.8987 8.8029 40.145 5.88009 37.7277 3.47199C35.3196 1.06389 32.3968 0.310204 29.0972 0.144762C25.6964 -0.048254 15.5033 -0.048254 12.1026 0.144762C8.8121 0.301013 5.88928 1.05469 3.47199 3.4628C1.05469 5.8709 0.310204 8.79371 0.144762 12.0934C-0.048254 15.4941 -0.048254 25.6872 0.144762 29.088C0.301013 32.3876 1.05469 35.3104 3.47199 37.7185C5.88928 40.1266 8.80291 40.8803 12.1026 41.0458C15.5033 41.2388 25.6964 41.2388 29.0972 41.0458C32.3968 40.8895 35.3196 40.1358 37.7277 37.7185C40.1358 35.3104 40.8895 32.3876 41.055 29.088C41.248 25.6872 41.248 15.5033 41.055 12.1026ZM36.6615 32.7369C35.9446 34.5384 34.5567 35.9262 32.7461 36.6523C30.0347 37.7277 23.6008 37.4796 20.6045 37.4796C17.6081 37.4796 11.1651 37.7185 8.46283 36.6523C6.66135 35.9354 5.27347 34.5476 4.54736 32.7369C3.47199 30.0255 3.72015 23.5916 3.72015 20.5953C3.72015 17.5989 3.48118 11.1559 4.54736 8.45364C5.26428 6.65216 6.65216 5.26428 8.46283 4.53817C11.1742 3.4628 17.6081 3.71096 20.6045 3.71096C23.6008 3.71096 30.0439 3.47199 32.7461 4.53817C34.5476 5.25509 35.9354 6.64296 36.6615 8.45364C37.7369 11.1651 37.4888 17.5989 37.4888 20.5953C37.4888 23.5916 37.7369 30.0347 36.6615 32.7369Z" fill="#044F5F"/>
</svg>
